<svg width="54" height="54" viewBox="0 0 54 54" fill="none" xmlns="http://www.w3.org/2000/svg">
<path d="M42.624 25.002C41.6408 17.2575 35.01 11.25 27 11.25C20.799 11.25 15.4125 14.8747 12.9532 20.5875C8.12025 22.032 4.5 26.595 4.5 31.5C4.5 37.7033 9.54675 42.75 15.75 42.75H40.5C45.4635 42.75 49.5 38.7135 49.5 33.75C49.4965 31.7331 48.8174 29.7756 47.5711 28.1899C46.3247 26.6042 44.583 25.4818 42.624 25.002ZM40.5 38.25H15.75C12.0285 38.25 9 35.2215 9 31.5C9 28.341 11.6977 25.299 15.0142 24.7162L16.3215 24.4868L16.7535 23.2312C18.3352 18.6165 22.2638 15.75 27 15.75C33.2033 15.75 38.25 20.7968 38.25 27V29.25H40.5C42.9818 29.25 45 31.2682 45 33.75C45 36.2318 42.9818 38.25 40.5 38.25Z" fill="blue"/>
</svg>
