<svg width="54" height="54" viewBox="0 0 54 54" fill="none" xmlns="http://www.w3.org/2000/svg">
<path d="M44.829 23.3618C44.9994 22.9506 45.0439 22.498 44.957 22.0615C44.8701 21.6249 44.6556 21.224 44.3408 20.9093L33.0908 9.6593L29.9093 12.8408L37.3185 20.2501H9.00002V24.7501H42.75C43.195 24.7502 43.63 24.6183 44.0001 24.3712C44.3701 24.1241 44.6586 23.7728 44.829 23.3618ZM9.17102 30.6383C9.00068 31.0495 8.95615 31.5021 9.04306 31.9386C9.12997 32.3752 9.34442 32.7761 9.65927 33.0908L20.9093 44.3408L24.0908 41.1593L16.6815 33.7501H45V29.2501H11.25C10.805 29.2496 10.3698 29.3814 9.99972 29.6285C9.62961 29.8756 9.34119 30.2271 9.17102 30.6383Z" fill="blue"/>
</svg>
