<svg width="54" height="54" viewBox="0 0 54 54" fill="none" xmlns="http://www.w3.org/2000/svg">
<path d="M30.0083 20.25H23.6228V27H30.0083C30.4619 27.0166 30.9141 26.9415 31.3381 26.7794C31.762 26.6172 32.1489 26.3713 32.4757 26.0563C32.8024 25.7412 33.0623 25.3636 33.2398 24.9458C33.4173 24.5281 33.5088 24.0789 33.5088 23.625C33.5088 23.1711 33.4173 22.7219 33.2398 22.3042C33.0623 21.8864 32.8024 21.5088 32.4757 21.1937C32.1489 20.8787 31.762 20.6328 31.3381 20.4706C30.9141 20.3085 30.4619 20.2334 30.0083 20.25Z" fill="blue"/>
<path d="M27 4.5C14.5733 4.5 4.5 14.5733 4.5 27C4.5 39.4268 14.5733 49.5 27 49.5C39.4268 49.5 49.5 39.4268 49.5 27C49.5 14.5733 39.4268 4.5 27 4.5ZM30.0082 31.5H23.6227V38.25H19.1273V15.75H30.0105C31.0444 15.7497 32.0683 15.9531 33.0236 16.3487C33.9789 16.7442 34.8469 17.3241 35.578 18.0552C36.3091 18.7863 36.889 19.6543 37.2846 20.6096C37.6801 21.5649 37.8835 22.5888 37.8833 23.6227C37.8838 24.6572 37.6806 25.6816 37.285 26.6374C36.8895 27.5933 36.3095 28.4618 35.5782 29.1933C34.8468 29.9249 33.9785 30.5051 33.0228 30.9009C32.067 31.2967 31.0427 31.5003 30.0082 31.5Z" fill="blue"/>
</svg>
