<svg width="70" height="70" viewBox="0 0 70 70" fill="none" xmlns="http://www.w3.org/2000/svg">
<path d="M0 22.1041V36.8439H3.5V58.9443H0V69.9963H56L66.5 70V69.9963H70V58.9443H66.5V36.8439H70V22.1041L35 0L0 22.1041ZM14 58.9443V36.8439H21V58.9443H14ZM31.5 58.9443V36.8439H38.5V58.9443H31.5ZM56 58.9443H49V36.8439H56V58.9443ZM42 22.1041C41.9998 23.0719 41.8184 24.0302 41.4664 24.9243C41.1143 25.8184 40.5983 26.6307 39.948 27.3149C39.2977 27.999 38.5257 28.5417 37.6761 28.9118C36.8265 29.282 35.916 29.4724 34.9965 29.4721C34.077 29.4719 33.1666 29.281 32.3172 28.9104C31.4678 28.5398 30.696 27.9968 30.046 27.3122C29.396 26.6277 28.8805 25.8151 28.5288 24.9209C28.1771 24.0266 27.9963 23.0682 27.9965 22.1004C27.997 20.1458 28.7351 18.2714 30.0485 16.8897C31.3619 15.5079 33.143 14.7319 35 14.7324C36.857 14.7329 38.6377 15.5098 39.9505 16.8923C41.2632 18.2747 42.0005 20.1495 42 22.1041Z" fill="blue"/>
</svg>
