<svg width="36" height="36" viewBox="0 0 36 36" fill="none" xmlns="http://www.w3.org/2000/svg">
<path d="M32.8957 9.553L30.8957 5.553C30.8126 5.38684 30.6848 5.24711 30.5267 5.14944C30.3687 5.05177 30.1865 5.00003 30.0007 5H25.0007C24.6217 5 24.2757 5.214 24.1057 5.553L22.3827 9H18.0007C17.6217 9 17.2757 9.214 17.1057 9.553L15.1057 13.553C15.0362 13.6919 15 13.8451 15 14.0005C15 14.1559 15.0362 14.3091 15.1057 14.448L17.1057 18.448C17.2757 18.786 17.6217 19 18.0007 19H22.3827L24.1067 22.447C24.1895 22.6132 24.3171 22.7531 24.475 22.8507C24.6329 22.9484 24.815 23.0001 25.0007 23H30.0007C30.3797 23 30.7257 22.786 30.8957 22.447L32.8957 18.447C32.9652 18.3081 33.0014 18.1549 33.0014 17.9995C33.0014 17.8441 32.9652 17.6909 32.8957 17.552L31.1187 14L32.8947 10.447C32.9642 10.3083 33.0005 10.1553 33.0007 10.0001C33.0009 9.84495 32.9649 9.69188 32.8957 9.553V9.553ZM25.6187 7H29.3827L30.8827 10L29.3827 13H25.6187L24.1187 10L25.6187 7V7ZM17.1187 14L18.6187 11H22.3827L23.8827 14L22.3827 17H18.6187L17.1187 14ZM29.3827 21H25.6187L24.1187 18L25.6187 15H29.3827L30.8827 18L29.3827 21Z" fill="blue"/>
<path d="M3.299 29.596C3.731 30.928 5.044 31.778 6.445 31.778H6.5C6.62853 32.4053 6.96969 32.969 7.46582 33.3739C7.96196 33.7787 8.58265 33.9999 9.223 34C9.68 34 10.107 33.885 10.485 33.687C10.6428 33.6005 10.774 33.4727 10.8647 33.3174C10.9554 33.162 11.0022 32.9849 11 32.805V15.027C11.002 14.7979 10.9251 14.5751 10.7821 14.3961C10.6391 14.217 10.4389 14.0927 10.215 14.044C9.71331 13.9466 9.19349 14.0172 8.736 14.245C7.992 14.601 7.556 15.396 7.556 16.223V16.278C6.99921 16.1644 6.42097 16.2242 5.89925 16.4495C5.37754 16.6747 4.93746 17.0546 4.63837 17.5378C4.33928 18.0209 4.19557 18.5842 4.22661 19.1517C4.25766 19.7191 4.46198 20.2633 4.812 20.711C4.02808 20.8338 3.31388 21.2328 2.79824 21.8359C2.28261 22.439 1.9995 23.2065 2 24C2 25.178 2.611 26.211 3.533 26.812C3.103 27.583 2.962 28.558 3.299 29.596ZM19.188 20.711C19.538 20.2633 19.7423 19.7191 19.7734 19.1517C19.8044 18.5842 19.6607 18.0209 19.3616 17.5378C19.0625 17.0546 18.6225 16.6747 18.1007 16.4495C17.579 16.2242 17.0008 16.1644 16.444 16.278V16.223C16.444 15.397 16.007 14.601 15.263 14.245C14.8059 14.0171 14.2864 13.9465 13.785 14.044C13.5612 14.0929 13.3611 14.2172 13.2181 14.3962C13.0752 14.5752 12.9982 14.7979 13 15.027V32.804C13 33.169 13.192 33.516 13.516 33.686C13.894 33.885 14.32 34 14.777 34C15.4175 33.9999 16.0383 33.7785 16.5344 33.3735C17.0306 32.9684 17.3717 32.4045 17.5 31.777H17.556C18.956 31.777 20.27 30.927 20.702 29.595C21.039 28.557 20.898 27.582 20.468 26.811C20.9377 26.5075 21.3239 26.0913 21.5915 25.6003C21.8591 25.1093 21.9995 24.5592 22 24C22.0005 23.2065 21.7174 22.439 21.2018 21.8359C20.6861 21.2328 19.9719 20.8338 19.188 20.711V20.711Z" fill="blue"/>
</svg>
