<svg width="54" height="54" viewBox="0 0 54 54" fill="none" xmlns="http://www.w3.org/2000/svg">
<path d="M45 13.5C45 8.622 36.7582 4.5 27 4.5C17.2418 4.5 9 8.622 9 13.5V18C9 22.878 17.2418 27 27 27C36.7582 27 45 22.878 45 18V13.5ZM27 42.75C17.2418 42.75 9 38.628 9 33.75V40.5C9 45.378 17.2418 49.5 27 49.5C36.7582 49.5 45 45.378 45 40.5V33.75C45 38.628 36.7582 42.75 27 42.75Z" fill="blue"/>
<path d="M45 22.5C45 27.378 36.7582 31.5 27 31.5C17.2418 31.5 9 27.378 9 22.5V29.25C9 34.128 17.2418 38.25 27 38.25C36.7582 38.25 45 34.128 45 29.25V22.5Z" fill="blue"/>
</svg>
