<svg width="54" height="54" viewBox="0 0 54 54" fill="none" xmlns="http://www.w3.org/2000/svg">
<path d="M27.4185 32.742C26.0302 32.742 25.2202 34.0628 25.2202 35.8313C25.2202 37.611 26.055 38.8688 27.432 38.8688C28.8202 38.8688 29.6167 37.5458 29.6167 35.7773C29.6167 34.1438 28.8337 32.742 27.4185 32.742Z" fill="blue"/>
<path d="M31.5 4.5H13.5C12.3065 4.5 11.1619 4.97411 10.318 5.81802C9.47411 6.66193 9 7.80653 9 9V45C9 46.1935 9.47411 47.3381 10.318 48.182C11.1619 49.0259 12.3065 49.5 13.5 49.5H40.5C41.6935 49.5 42.8381 49.0259 43.682 48.182C44.5259 47.3381 45 46.1935 45 45V18L31.5 4.5ZM20.5987 39.2715C19.6402 40.068 18.1845 40.4438 16.4047 40.4438C15.336 40.4438 14.5822 40.3763 14.0692 40.3088V31.374C14.9894 31.2415 15.9184 31.1791 16.848 31.1873C18.576 31.1873 19.6965 31.4978 20.5717 32.1593C21.5167 32.8612 22.1107 33.9817 22.1107 35.5837C22.1107 37.3275 21.4762 38.529 20.5987 39.2715ZM27.3263 40.5C24.6263 40.5 23.049 38.4615 23.049 35.8695C23.049 33.1448 24.7883 31.1085 27.4748 31.1085C30.267 31.1085 31.7925 33.1988 31.7925 35.7098C31.7903 38.691 29.9813 40.5 27.3263 40.5ZM37.8 38.7855C38.4187 38.7855 39.1073 38.6483 39.5145 38.4885L39.825 40.0928C39.447 40.2817 38.5965 40.4842 37.4918 40.4842C34.3485 40.4842 32.7285 38.529 32.7285 35.937C32.7285 32.8342 34.9403 31.1085 37.6943 31.1085C38.7607 31.1085 39.5685 31.3245 39.933 31.5135L39.5145 33.147C38.9667 32.9206 38.3792 32.8059 37.7865 32.8095C36.153 32.8095 34.884 33.795 34.884 35.82C34.884 37.6403 35.964 38.7855 37.8 38.7855ZM31.5 20.25H29.25V9L40.5 20.25H31.5Z" fill="blue"/>
<path d="M17.064 32.7668C16.6073 32.7668 16.3103 32.8073 16.1348 32.8478V38.799C16.3103 38.8395 16.5938 38.8395 16.848 38.8395C18.711 38.853 19.9238 37.8293 19.9238 35.6558C19.9373 33.7658 18.8325 32.7668 17.064 32.7668Z" fill="blue"/>
</svg>
